<?xml version="1.0" encoding="UTF-8" standalone="no"?>
<svg
   xmlns:dc="http://purl.org/dc/elements/1.1/"
   xmlns:cc="http://creativecommons.org/ns#"
   xmlns:rdf="http://www.w3.org/1999/02/22-rdf-syntax-ns#"
   xmlns:svg="http://www.w3.org/2000/svg"
   xmlns="http://www.w3.org/2000/svg"
   xmlns:sodipodi="http://sodipodi.sourceforge.net/DTD/sodipodi-0.dtd"
   xmlns:inkscape="http://www.inkscape.org/namespaces/inkscape"
   width="255pt"
   height="70pt"
   viewBox="0 0 255 70"
   version="1.1"
   id="svg2"
   inkscape:version="0.48.4 r9939"
   sodipodi:docname="academy_logo.svg">
  <metadata
     id="metadata86">
    <rdf:RDF>
      <cc:Work
         rdf:about="">
        <dc:format>image/svg+xml</dc:format>
        <dc:type
           rdf:resource="http://purl.org/dc/dcmitype/StillImage" />
      </cc:Work>
    </rdf:RDF>
  </metadata>
  <defs
     id="defs84" />
  <sodipodi:namedview
     pagecolor="#ffffff"
     bordercolor="#666666"
     borderopacity="1"
     objecttolerance="10"
     gridtolerance="10"
     guidetolerance="10"
     inkscape:pageopacity="0"
     inkscape:pageshadow="2"
     inkscape:window-width="1309"
     inkscape:window-height="744"
     id="namedview82"
     showgrid="false"
     inkscape:zoom="1.2955305"
     inkscape:cx="179.47279"
     inkscape:cy="32.978909"
     inkscape:window-x="57"
     inkscape:window-y="24"
     inkscape:window-maximized="1"
     inkscape:current-layer="svg2" />
  <path
     d=" M 0.00 0.00 L 255.00 0.00 L 255.00 70.00 L 0.00 70.00 L 0.00 0.00 Z"
     id="path4"
     fill="#1F3A4D" />
  <path
     d=" M 64.49 3.06 C 68.32 2.98 72.15 2.99 75.98 3.00 C 81.80 18.09 87.66 33.17 93.38 48.30 C 82.18 48.35 70.98 48.28 59.78 48.34 C 56.74 57.28 49.54 65.21 40.01 67.09 C 31.81 68.31 22.79 68.06 15.61 63.41 C 2.54 55.67 -2.12 37.25 4.86 23.94 C 8.78 16.59 15.74 10.78 23.92 8.86 C 34.14 6.57 45.66 8.38 53.71 15.41 C 52.28 19.14 50.83 22.86 49.37 26.58 C 45.92 23.56 42.19 20.56 37.61 19.52 C 30.49 17.57 22.27 19.79 17.46 25.49 C 11.51 31.86 11.29 42.46 16.68 49.24 C 22.15 56.68 33.08 59.43 41.37 55.32 C 44.57 53.79 46.57 50.73 48.46 47.86 C 42.98 47.78 37.49 47.82 32.01 47.83 C 31.99 44.34 31.99 40.86 32.05 37.38 C 38.45 37.44 44.86 37.39 51.27 37.42 C 55.71 25.98 60.18 14.55 64.49 3.06 Z"
     id="path6"
     fill="#a8223d" />
  <path
     d=" M 143.62 3.53 C 147.27 2.44 151.17 3.11 154.92 3.05 C 154.97 4.73 155.03 6.41 155.09 8.09 C 152.88 5.91 149.92 3.10 146.54 4.45 C 140.69 5.88 141.04 14.56 145.50 17.42 C 147.37 18.55 149.59 18.77 151.69 19.18 C 151.83 17.24 151.95 15.30 152.06 13.36 C 151.24 12.58 150.42 11.80 149.61 11.02 C 151.93 10.99 154.24 10.99 156.56 10.91 C 154.83 13.51 155.14 16.69 154.64 19.63 C 149.80 20.41 143.62 20.93 140.18 16.67 C 137.55 12.44 138.56 5.50 143.62 3.53 Z"
     id="path8"
     fill="#a3b0c1" />
  <path
     d=" M 155.46 20.00 C 159.40 14.80 159.99 7.72 164.04 2.73 C 167.05 7.75 168.12 13.71 171.24 18.66 C 172.47 18.94 173.70 19.17 174.95 19.35 C 175.01 14.37 175.01 9.39 174.96 4.42 C 172.93 4.82 170.90 5.25 168.89 5.71 C 168.92 5.03 168.99 3.67 169.02 2.99 C 178.01 3.00 186.99 3.00 195.98 2.99 C 196.01 3.73 196.09 5.20 196.12 5.94 C 194.15 4.99 192.12 4.18 190.06 3.47 C 190.01 6.01 190.00 8.56 189.99 11.10 C 191.81 10.91 193.62 10.70 195.44 10.48 C 195.37 11.34 195.23 13.06 195.16 13.92 C 193.60 12.73 191.80 11.95 189.91 11.49 C 190.33 13.88 189.07 17.15 191.29 18.85 C 193.23 19.69 194.77 17.72 196.34 16.92 C 196.24 17.70 196.05 19.24 195.96 20.01 C 192.19 20.01 188.42 20.01 184.66 19.99 C 185.23 19.64 186.39 18.94 186.96 18.59 C 187.02 13.55 187.02 8.51 186.90 3.46 C 186.06 4.12 185.29 4.82 184.56 5.58 C 182.40 5.14 180.21 4.83 178.04 4.46 C 177.95 9.11 177.96 13.76 178.12 18.41 C 179.21 18.92 180.31 19.43 181.40 19.93 C 176.68 20.06 171.96 20.01 167.24 20.00 C 166.74 17.96 166.21 15.93 165.70 13.89 C 163.92 14.29 161.22 13.28 160.35 15.40 C 159.31 16.92 159.33 18.80 160.64 20.14 C 158.91 20.09 157.19 20.03 155.46 20.00 Z"
     id="path10"
     fill="#a3b0c1" />
  <path
     d=" M 199.08 5.23 C 200.98 2.17 204.88 3.12 207.90 2.94 C 207.96 4.34 208.03 5.74 208.09 7.15 C 206.29 5.99 203.92 2.17 202.08 5.24 C 201.98 5.64 201.77 6.43 201.66 6.83 C 203.67 9.63 208.15 11.06 208.10 15.00 C 208.43 16.98 207.44 18.87 205.64 19.74 C 203.46 20.16 201.22 20.05 199.02 20.12 C 198.99 18.37 198.97 16.62 198.93 14.87 C 200.07 16.56 201.84 20.41 204.28 18.30 C 207.12 15.74 203.17 13.24 201.31 11.66 C 199.06 10.32 198.45 7.66 199.08 5.23 Z"
     id="path12"
     fill="#a3b0c1" />
  <path
     d=" M 161.33 12.95 C 162.03 11.45 162.73 9.95 163.45 8.46 C 163.97 9.98 164.49 11.50 165.01 13.02 C 164.09 13.00 162.25 12.96 161.33 12.95 Z"
     id="path14"
     fill="#1F3A4D" />
  <path
     d=" M 63.04 37.44 C 65.47 31.17 67.84 24.88 70.44 18.68 C 72.72 24.97 75.26 31.16 77.64 37.41 C 72.77 37.41 67.90 37.39 63.04 37.44 Z"
     id="path16"
     fill="#1F3A4D" />
  <path
     d=" M 110.45 23.34 C 113.83 29.16 115.57 35.72 118.33 41.82 C 119.07 43.66 120.74 44.82 122.18 46.09 C 120.20 46.04 118.22 46.01 116.24 45.99 C 115.34 43.05 114.37 40.13 113.42 37.20 C 111.36 37.11 109.30 37.02 107.24 36.95 C 106.47 39.29 105.70 41.63 104.91 43.96 C 105.25 44.47 105.93 45.48 106.27 45.99 C 104.07 46.01 101.86 46.04 99.66 46.11 C 100.98 44.92 102.57 43.87 103.18 42.11 C 105.68 35.88 107.69 29.46 110.45 23.34 Z"
     id="path18"
     fill="#a3b0c1" />
  <path
     d=" M 127.71 24.63 C 131.97 23.31 136.56 24.15 140.95 24.13 C 140.99 26.21 141.02 28.29 141.07 30.37 C 138.88 23.00 126.69 23.68 124.68 30.83 C 122.10 37.22 127.99 45.08 134.93 44.28 C 137.86 44.78 139.82 42.77 141.23 40.52 C 141.19 42.18 141.15 43.84 141.14 45.50 C 135.26 46.31 128.03 47.21 123.65 42.24 C 118.62 36.93 120.88 27.23 127.71 24.63 Z"
     id="path20"
     fill="#a3b0c1" />
  <path
     d=" M 151.69 23.32 C 155.19 29.29 156.93 36.06 159.79 42.33 C 160.41 43.80 161.78 44.71 162.92 45.76 L 163.16 46.01 C 161.21 46.01 159.27 46.00 157.33 46.00 C 156.56 42.99 155.61 40.03 154.67 37.08 C 152.55 37.04 150.42 37.02 148.30 36.99 C 147.58 39.55 146.82 42.11 146.05 44.66 C 146.57 44.97 147.62 45.61 148.15 45.93 C 145.86 45.99 143.56 46.04 141.27 46.13 C 142.74 44.58 144.20 42.95 144.91 40.90 C 147.21 35.05 149.15 29.06 151.69 23.32 Z"
     id="path22"
     fill="#a3b0c1" />
  <path
     d=" M 162.65 24.31 C 168.63 24.20 175.10 22.81 180.76 25.28 C 188.90 29.07 187.49 42.46 179.27 45.32 C 174.34 46.73 169.10 45.95 164.04 46.09 C 164.93 44.50 166.08 42.93 165.98 41.01 C 166.19 35.84 165.96 30.66 165.89 25.48 C 165.08 25.19 163.46 24.60 162.65 24.31 Z"
     id="path24"
     fill="#a3b0c1" />
  <path
     d=" M 187.61 24.27 C 192.06 23.91 196.53 23.93 200.99 24.00 C 201.02 25.29 201.05 26.58 201.09 27.87 C 199.09 25.89 196.50 24.87 193.73 24.61 C 193.70 27.82 193.70 31.03 193.74 34.24 C 195.98 33.94 198.22 33.64 200.45 33.24 C 200.32 34.53 200.21 35.83 200.12 37.13 C 198.24 35.72 196.04 34.94 193.74 34.56 C 193.71 37.66 193.42 40.81 194.04 43.87 C 196.55 46.98 200.24 43.61 202.50 41.85 C 202.00 43.18 201.64 44.58 200.90 45.80 C 196.99 46.24 193.05 45.97 189.13 46.07 C 189.95 44.48 191.01 42.90 190.97 41.04 C 191.21 35.85 190.97 30.65 190.87 25.46 C 190.06 25.16 188.43 24.56 187.61 24.27 Z"
     id="path26"
     fill="#a3b0c1" />
  <path
     d=" M 208.42 23.28 C 212.55 28.86 214.66 35.57 218.33 41.43 C 221.43 35.39 223.68 28.87 227.55 23.25 C 228.72 30.26 228.99 37.38 230.31 44.37 C 231.46 44.89 232.60 45.41 233.74 45.94 C 231.54 46.00 229.33 46.02 227.13 46.05 C 226.63 40.83 225.90 35.64 225.83 30.39 C 222.90 35.72 220.77 41.45 217.46 46.57 C 214.52 41.57 212.38 36.13 209.22 31.26 C 209.04 35.70 208.94 40.15 208.42 44.56 C 208.96 44.92 210.04 45.64 210.57 45.99 C 208.39 46.01 206.21 46.02 204.03 46.02 L 204.39 45.83 C 206.24 43.84 206.24 41.02 206.62 38.48 C 207.12 33.41 207.69 28.34 208.42 23.28 Z"
     id="path28"
     fill="#a3b0c1" />
  <path
     d=" M 230.62 23.92 C 232.46 23.96 234.30 23.99 236.14 24.02 C 237.43 27.72 239.42 31.11 241.44 34.45 C 243.58 31.21 245.56 27.81 246.52 24.01 C 248.40 23.99 250.28 23.96 252.17 23.92 C 247.62 26.53 244.96 31.37 243.07 36.08 C 242.55 39.38 241.46 44.17 245.25 45.97 C 242.72 45.96 240.20 45.98 237.68 46.03 C 238.48 45.29 239.28 44.54 240.09 43.80 C 240.92 35.98 235.87 29.14 230.62 23.92 Z"
     id="path30"
     fill="#a3b0c1" />
  <path
     d=" M 168.87 24.75 C 172.82 25.33 177.40 25.52 180.29 28.67 C 184.03 32.40 184.12 39.49 179.75 42.77 C 176.66 45.18 172.55 45.06 168.94 44.15 C 168.56 37.69 168.60 31.22 168.87 24.75 Z"
     id="path32"
     fill="#1F3A4D" />
  <path
     d=" M 148.83 35.98 C 149.70 33.58 150.57 31.17 151.47 28.77 C 152.31 31.19 153.18 33.60 154.05 36.01 C 152.31 36.00 150.57 35.99 148.83 35.98 Z"
     id="path34"
     fill="#1F3A4D" />
  <path
     d=" M 107.58 35.90 C 108.41 33.70 109.31 31.51 110.30 29.38 C 111.18 31.58 112.02 33.81 112.87 36.04 C 111.10 35.99 109.34 35.95 107.58 35.90 Z"
     id="path36"
     fill="#1F3A4D" />
  <path
     d=" M 99.87 50.66 C 104.15 49.55 108.60 50.03 112.97 49.99 C 158.98 50.00 204.99 49.99 251.01 49.99 L 251.00 51.01 C 202.36 51.01 153.72 50.98 105.08 51.02 C 103.33 50.99 101.60 50.87 99.87 50.66 Z"
     id="path38"
     fill="#a3b0c1" />
  <path
     d=" M 107.99 52.07 L 108.93 51.97 C 108.93 53.79 108.94 55.60 108.94 57.42 C 110.52 56.59 112.18 55.61 114.06 55.99 C 116.28 56.05 117.16 58.52 118.59 59.81 C 119.72 57.77 121.29 55.32 124.05 55.95 C 127.48 55.56 128.43 59.31 129.23 61.84 C 125.86 62.01 122.49 61.96 119.13 62.21 C 120.07 63.18 120.93 64.34 122.22 64.89 C 124.43 65.50 126.44 63.94 128.48 63.37 C 127.12 66.11 123.85 66.60 121.15 65.71 C 120.03 64.75 119.38 63.39 118.58 62.18 C 117.64 63.36 116.70 64.54 115.62 65.58 C 113.56 66.62 111.26 65.68 109.22 65.08 C 108.91 65.42 108.30 66.09 107.99 66.43 C 108.21 61.64 108.07 56.85 107.99 52.07 Z"
     id="path40"
     fill="#a8223d" />
  <path
     d=" M 170.00 52.08 L 170.93 51.96 C 170.96 56.77 170.94 61.59 171.01 66.40 C 170.70 66.07 170.10 65.41 169.79 65.07 C 167.77 65.72 165.44 66.62 163.40 65.58 C 160.18 63.66 160.23 58.31 163.43 56.40 C 165.61 55.35 168.05 56.26 170.09 57.22 C 170.05 55.50 170.02 53.79 170.00 52.08 Z"
     id="path42"
     fill="#a8223d" />
  <path
     d=" M 175.26 52.30 C 175.78 52.84 175.78 52.84 175.26 52.30 Z"
     id="path44"
     fill="#a3b0c1" />
  <path
     d=" M 180.05 52.02 L 180.96 51.99 C 180.69 56.93 181.67 62.02 180.35 66.85 C 179.79 61.93 180.18 56.96 180.05 52.02 Z"
     id="path46"
     fill="#a8223d" />
  <path
     d=" M 221.07 52.28 C 224.35 52.34 219.64 55.37 221.07 52.28 Z"
     id="path48"
     fill="#a8223d" />
  <path
     d=" M 129.97 56.01 L 130.88 55.97 C 130.91 58.72 130.95 61.46 131.07 64.20 C 133.01 64.94 135.21 65.32 136.88 63.74 C 137.93 61.09 137.45 58.12 137.93 55.35 C 139.56 58.59 138.83 62.35 138.46 65.79 C 138.33 67.67 136.65 68.78 135.18 69.65 C 132.43 70.99 130.54 67.94 128.74 66.38 C 130.77 67.02 132.72 68.29 134.94 68.01 C 136.17 67.34 137.34 66.54 138.42 65.63 C 135.86 65.41 132.32 67.14 130.44 64.63 C 129.79 61.81 130.05 58.88 129.97 56.01 Z"
     id="path50"
     fill="#a8223d" />
  <path
     d=" M 142.72 55.94 C 144.98 56.07 147.86 55.60 149.21 57.92 C 150.35 60.14 150.35 63.57 148.15 65.18 C 145.34 67.23 140.15 65.96 139.98 62.02 C 139.27 59.47 141.43 57.78 142.72 55.94 Z"
     id="path52"
     fill="#a8223d" />
  <path
     d=" M 151.00 56.40 C 153.97 56.60 158.43 54.51 159.66 58.41 C 160.10 61.18 159.81 64.02 159.43 66.78 C 158.51 64.09 158.74 61.22 158.75 58.43 C 157.38 57.72 155.95 56.40 154.33 57.22 C 151.11 58.93 152.17 63.05 151.84 66.01 L 150.98 66.00 C 151.05 62.80 151.15 59.60 151.00 56.40 Z"
     id="path54"
     fill="#a8223d" />
  <path
     d=" M 183.84 65.28 C 180.11 62.65 182.07 55.29 187.00 55.95 C 190.47 55.44 191.92 59.16 192.37 61.91 C 188.96 62.01 185.55 61.95 182.16 62.20 C 183.59 63.33 184.87 65.45 187.00 65.01 C 188.80 64.63 190.49 63.84 192.26 63.29 C 190.36 65.84 186.61 67.12 183.84 65.28 Z"
     id="path56"
     fill="#a8223d" />
  <path
     d=" M 193.27 63.90 C 193.09 61.40 192.18 57.61 195.08 56.32 C 197.55 55.65 200.13 56.48 202.65 56.49 C 202.54 59.49 202.54 62.50 202.65 65.51 C 199.54 65.37 195.08 67.45 193.27 63.90 Z"
     id="path58"
     fill="#a8223d" />
  <path
     d=" M 204.27 56.44 C 208.48 56.40 212.70 56.11 216.91 56.10 C 220.69 57.97 219.29 63.39 218.59 66.77 C 218.19 63.91 218.40 61.00 217.95 58.14 C 216.68 57.29 214.79 56.33 213.42 57.55 C 210.41 59.52 212.17 63.79 211.22 66.75 C 210.20 63.37 210.66 59.78 210.56 56.31 C 208.88 56.97 206.28 56.96 205.79 59.15 C 205.25 61.32 205.44 63.58 205.39 65.79 C 205.13 65.84 204.61 65.93 204.35 65.97 C 204.39 62.80 204.40 59.62 204.27 56.44 Z"
     id="path60"
     fill="#a8223d" />
  <path
     d=" M 221.06 55.96 L 221.98 56.05 C 221.96 59.37 221.95 62.70 221.94 66.02 L 221.02 65.97 C 221.04 62.63 221.06 59.30 221.06 55.96 Z"
     id="path62"
     fill="#a8223d" />
  <path
     d=" M 223.99 56.34 C 226.63 56.23 229.31 55.82 231.87 56.70 C 231.76 59.98 231.94 63.28 231.56 66.56 C 231.11 63.81 231.41 61.00 231.00 58.26 C 229.49 55.99 226.16 56.99 225.13 59.16 C 224.81 61.71 225.00 64.29 224.65 66.84 C 223.53 63.45 224.10 59.84 223.99 56.34 Z"
     id="path64"
     fill="#a8223d" />
  <path
     d=" M 234.59 57.55 C 236.67 54.83 240.43 56.57 243.29 56.48 C 242.67 60.69 245.14 67.06 240.27 69.36 C 237.58 71.27 235.14 68.04 233.36 66.35 C 235.80 67.13 238.68 69.14 241.11 67.18 C 241.59 66.61 242.53 65.46 243.01 64.89 C 240.02 66.08 236.54 66.70 234.01 64.24 C 234.21 62.03 233.74 59.63 234.59 57.55 Z"
     id="path66"
     fill="#a8223d" />
  <path
     d=" M 111.51 57.36 C 114.96 55.41 119.19 60.37 116.43 63.38 C 114.86 65.75 112.07 64.76 109.85 64.15 C 108.85 61.80 108.49 58.34 111.51 57.36 Z"
     id="path68"
     fill="#1F3A4D" />
  <path
     d=" M 119.23 60.87 C 120.18 59.31 121.10 57.40 123.08 56.97 C 124.36 57.10 125.59 57.53 126.83 57.87 C 127.21 58.90 127.58 59.94 127.96 60.98 C 125.05 61.01 122.13 61.01 119.23 60.87 Z"
     id="path70"
     fill="#1F3A4D" />
  <path
     d=" M 143.18 57.35 C 145.55 56.11 149.53 58.05 149.06 60.99 C 149.43 64.12 145.07 66.12 142.66 64.31 C 139.77 63.06 140.29 58.30 143.18 57.35 Z"
     id="path72"
     fill="#1F3A4D" />
  <path
     d=" M 165.16 57.07 C 167.46 56.58 170.25 58.53 170.10 61.02 C 170.18 64.22 165.55 66.33 163.25 63.94 C 160.43 61.98 162.04 57.60 165.16 57.07 Z"
     id="path74"
     fill="#1F3A4D" />
  <path
     d=" M 182.39 60.89 C 183.44 59.12 184.70 57.03 187.01 56.94 C 189.37 56.92 190.53 59.17 191.61 60.89 C 188.54 61.03 185.46 61.03 182.39 60.89 Z"
     id="path76"
     fill="#1F3A4D" />
  <path
     d=" M 196.15 57.16 C 198.55 56.31 201.71 58.29 201.49 60.97 C 201.78 63.87 197.79 66.15 195.44 64.42 C 192.57 62.94 193.09 58.14 196.15 57.16 Z"
     id="path78"
     fill="#1F3A4D" />
  <path
     d=" M 237.31 57.12 C 241.11 55.80 244.29 61.62 240.94 63.95 C 238.75 66.46 234.18 64.25 234.60 61.02 C 234.58 59.24 235.73 57.81 237.31 57.12 Z"
     id="path80"
     fill="#1F3A4D" />
</svg>
